<?xml version="1.0" encoding="UTF-8" standalone="no"?>
<!DOCTYPE svg PUBLIC "-//W3C//DTD SVG 1.1//EN"
 "http://www.w3.org/Graphics/SVG/1.1/DTD/svg11.dtd">
<!-- Generated by graphviz version 12.2.1 (0)
 -->
<!-- Title: F_isNaN Pages: 1 -->
<svg width="1876pt" height="597pt"
 viewBox="0.00 0.00 1876.48 597.00" xmlns="http://www.w3.org/2000/svg" xmlns:xlink="http://www.w3.org/1999/xlink">
<g id="graph0" class="graph" transform="scale(1 1) rotate(0) translate(4 593)">
<title>F_isNaN</title>
<polygon fill="white" stroke="none" points="-4,4 -4,-593 1872.48,-593 1872.48,4 -4,4"/>
<text text-anchor="middle" x="934.24" y="-7.95" font-family="Times,serif" font-size="14.00">F_isNaN</text>
<!-- n28 -->
<g id="node1" class="node">
<title>n28</title>
<polygon fill="none" stroke="black" points="1849.69,-362.79 1849.69,-377.71 1813.55,-388.25 1762.44,-388.25 1726.31,-377.71 1726.31,-362.79 1762.44,-352.25 1813.55,-352.25 1849.69,-362.79"/>
<text text-anchor="middle" x="1788" y="-365.57" font-family="Times,serif" font-size="14.00">isNormal</text>
</g>
<!-- n29 -->
<g id="node2" class="node">
<title>n29</title>
<polygon fill="none" stroke="black" points="1834.31,-308.79 1834.31,-323.71 1807.18,-334.25 1768.81,-334.25 1741.68,-323.71 1741.68,-308.79 1768.81,-298.25 1807.18,-298.25 1834.31,-308.79"/>
<text text-anchor="middle" x="1788" y="-311.57" font-family="Times,serif" font-size="14.00">isZero</text>
</g>
<!-- n30 -->
<g id="node3" class="node">
<title>n30</title>
<polygon fill="none" stroke="black" points="1868.48,-254.79 1868.48,-269.71 1821.33,-280.25 1754.66,-280.25 1707.51,-269.71 1707.51,-254.79 1754.66,-244.25 1821.33,-244.25 1868.48,-254.79"/>
<text text-anchor="middle" x="1788" y="-257.57" font-family="Times,serif" font-size="14.00">isSubnormal</text>
</g>
<!-- n31 -->
<g id="node4" class="node">
<title>n31</title>
<polygon fill="none" stroke="black" points="1846.27,-200.79 1846.27,-215.71 1812.14,-226.25 1763.86,-226.25 1729.72,-215.71 1729.72,-200.79 1763.86,-190.25 1812.14,-190.25 1846.27,-200.79"/>
<text text-anchor="middle" x="1788" y="-203.57" font-family="Times,serif" font-size="14.00">isNegInf</text>
</g>
<!-- n32 -->
<g id="node5" class="node">
<title>n32</title>
<polygon fill="none" stroke="black" points="1824.06,-146.79 1824.06,-161.71 1802.94,-172.25 1773.06,-172.25 1751.93,-161.71 1751.93,-146.79 1773.06,-136.25 1802.94,-136.25 1824.06,-146.79"/>
<text text-anchor="middle" x="1788" y="-149.57" font-family="Times,serif" font-size="14.00">isInf</text>
</g>
<!-- n33 -->
<g id="node6" class="node">
<title>n33</title>
<polygon fill="none" stroke="black" points="1833.74,-92.79 1833.74,-107.71 1806.95,-118.25 1769.05,-118.25 1742.25,-107.71 1742.25,-92.79 1769.05,-82.25 1806.95,-82.25 1833.74,-92.79"/>
<text text-anchor="middle" x="1788" y="-95.58" font-family="Times,serif" font-size="14.00">isNaN</text>
</g>
<!-- n34 -->
<g id="node7" class="node">
<title>n34</title>
<polygon fill="none" stroke="black" points="255.51,-361.79 255.51,-376.71 239.69,-387.25 217.32,-387.25 201.51,-376.71 201.51,-361.79 217.32,-351.25 239.69,-351.25 255.51,-361.79"/>
<text text-anchor="middle" x="228.51" y="-364.57" font-family="Times,serif" font-size="14.00">a</text>
</g>
<!-- x0 -->
<g id="node11" class="node">
<title>x0</title>
<path fill="none" stroke="black" d="M505.64,-489.25C505.64,-489.25 574.14,-489.25 574.14,-489.25 580.14,-489.25 586.14,-495.25 586.14,-501.25 586.14,-501.25 586.14,-513.25 586.14,-513.25 586.14,-519.25 580.14,-525.25 574.14,-525.25 574.14,-525.25 505.64,-525.25 505.64,-525.25 499.64,-525.25 493.64,-519.25 493.64,-513.25 493.64,-513.25 493.64,-501.25 493.64,-501.25 493.64,-495.25 499.64,-489.25 505.64,-489.25"/>
<text text-anchor="middle" x="539.89" y="-502.95" font-family="Times,serif" font-size="14.00">30:23 &#45; 7:0</text>
</g>
<!-- n34&#45;&gt;x0 -->
<g id="edge26" class="edge">
<title>n34:e&#45;&gt;x0:w</title>
<path fill="none" stroke="black" stroke-width="3" d="M256.76,-369.25C374.53,-369.25 371.65,-498.85 481.64,-507.2"/>
<polygon fill="black" stroke="black" stroke-width="3" points="478.35,-510.58 488.48,-507.46 478.61,-503.59 478.35,-510.58"/>
</g>
<!-- x1 -->
<g id="node14" class="node">
<title>x1</title>
<path fill="none" stroke="black" d="M505.64,-547.25C505.64,-547.25 574.14,-547.25 574.14,-547.25 580.14,-547.25 586.14,-553.25 586.14,-559.25 586.14,-559.25 586.14,-571.25 586.14,-571.25 586.14,-577.25 580.14,-583.25 574.14,-583.25 574.14,-583.25 505.64,-583.25 505.64,-583.25 499.64,-583.25 493.64,-577.25 493.64,-571.25 493.64,-571.25 493.64,-559.25 493.64,-559.25 493.64,-553.25 499.64,-547.25 505.64,-547.25"/>
<text text-anchor="middle" x="539.89" y="-560.95" font-family="Times,serif" font-size="14.00">30:23 &#45; 7:0</text>
</g>
<!-- n34&#45;&gt;x1 -->
<g id="edge27" class="edge">
<title>n34:e&#45;&gt;x1:w</title>
<path fill="none" stroke="black" stroke-width="3" d="M256.76,-369.25C389.43,-369.25 358.42,-554.66 481.82,-565.16"/>
<polygon fill="black" stroke="black" stroke-width="3" points="478.34,-568.52 488.48,-565.44 478.63,-561.53 478.34,-568.52"/>
</g>
<!-- x2 -->
<g id="node17" class="node">
<title>x2</title>
<path fill="none" stroke="black" d="M505.64,-379.25C505.64,-379.25 574.14,-379.25 574.14,-379.25 580.14,-379.25 586.14,-385.25 586.14,-391.25 586.14,-391.25 586.14,-403.25 586.14,-403.25 586.14,-409.25 580.14,-415.25 574.14,-415.25 574.14,-415.25 505.64,-415.25 505.64,-415.25 499.64,-415.25 493.64,-409.25 493.64,-403.25 493.64,-403.25 493.64,-391.25 493.64,-391.25 493.64,-385.25 499.64,-379.25 505.64,-379.25"/>
<text text-anchor="middle" x="539.89" y="-392.95" font-family="Times,serif" font-size="14.00">22:0 &#45; 22:0</text>
</g>
<!-- n34&#45;&gt;x2 -->
<g id="edge28" class="edge">
<title>n34:e&#45;&gt;x2:w</title>
<path fill="none" stroke="black" stroke-width="3" d="M256.76,-369.25C358.59,-369.25 385.31,-395.56 481.57,-397.51"/>
<polygon fill="black" stroke="black" stroke-width="3" points="478.44,-400.98 488.47,-397.58 478.51,-393.98 478.44,-400.98"/>
</g>
<!-- x3 -->
<g id="node20" class="node">
<title>x3</title>
<path fill="none" stroke="black" d="M505.64,-434.25C505.64,-434.25 574.14,-434.25 574.14,-434.25 580.14,-434.25 586.14,-440.25 586.14,-446.25 586.14,-446.25 586.14,-458.25 586.14,-458.25 586.14,-464.25 580.14,-470.25 574.14,-470.25 574.14,-470.25 505.64,-470.25 505.64,-470.25 499.64,-470.25 493.64,-464.25 493.64,-458.25 493.64,-458.25 493.64,-446.25 493.64,-446.25 493.64,-440.25 499.64,-434.25 505.64,-434.25"/>
<text text-anchor="middle" x="539.89" y="-447.95" font-family="Times,serif" font-size="14.00">30:23 &#45; 7:0</text>
</g>
<!-- n34&#45;&gt;x3 -->
<g id="edge29" class="edge">
<title>n34:e&#45;&gt;x3:w</title>
<path fill="none" stroke="black" stroke-width="3" d="M256.76,-369.25C364.19,-369.25 380.59,-446.87 481.62,-452.32"/>
<polygon fill="black" stroke="black" stroke-width="3" points="478.39,-455.74 488.48,-452.5 478.57,-448.74 478.39,-455.74"/>
</g>
<!-- c48 -->
<g id="node23" class="node">
<title>c48</title>
<polygon fill="none" stroke="black" points="493.01,-240 493.01,-290.5 586.76,-290.5 586.76,-240 493.01,-240"/>
<text text-anchor="middle" x="506.26" y="-273.2" font-family="Times,serif" font-size="14.00">A</text>
<polyline fill="none" stroke="black" points="493.01,-265.25 519.51,-265.25"/>
<text text-anchor="middle" x="506.26" y="-247.95" font-family="Times,serif" font-size="14.00">B</text>
<polyline fill="none" stroke="black" points="519.51,-240 519.51,-290.5"/>
<text text-anchor="middle" x="540.64" y="-269.2" font-family="Times,serif" font-size="14.00">$6</text>
<text text-anchor="middle" x="540.64" y="-251.95" font-family="Times,serif" font-size="14.00">$eq</text>
<polyline fill="none" stroke="black" points="561.76,-240 561.76,-290.5"/>
<text text-anchor="middle" x="574.26" y="-260.7" font-family="Times,serif" font-size="14.00">Y</text>
</g>
<!-- n34&#45;&gt;c48 -->
<g id="edge21" class="edge">
<title>n34:e&#45;&gt;c48:w</title>
<path fill="none" stroke="black" stroke-width="3" d="M256.76,-369.25C346.57,-369.25 382.76,-392.77 457.01,-342.25 480.31,-326.4 465.94,-290.25 482.25,-280.4"/>
<polygon fill="black" stroke="black" stroke-width="3" points="479.65,-284.6 488.59,-278.91 478.06,-277.78 479.65,-284.6"/>
</g>
<!-- c49 -->
<g id="node25" class="node">
<title>c49</title>
<polygon fill="none" stroke="black" points="493.01,-310 493.01,-360.5 586.76,-360.5 586.76,-310 493.01,-310"/>
<text text-anchor="middle" x="506.26" y="-343.2" font-family="Times,serif" font-size="14.00">A</text>
<polyline fill="none" stroke="black" points="493.01,-335.25 519.51,-335.25"/>
<text text-anchor="middle" x="506.26" y="-317.95" font-family="Times,serif" font-size="14.00">B</text>
<polyline fill="none" stroke="black" points="519.51,-310 519.51,-360.5"/>
<text text-anchor="middle" x="540.64" y="-339.2" font-family="Times,serif" font-size="14.00">$5</text>
<text text-anchor="middle" x="540.64" y="-321.95" font-family="Times,serif" font-size="14.00">$eq</text>
<polyline fill="none" stroke="black" points="561.76,-310 561.76,-360.5"/>
<text text-anchor="middle" x="574.26" y="-330.7" font-family="Times,serif" font-size="14.00">Y</text>
</g>
<!-- n34&#45;&gt;c49 -->
<g id="edge22" class="edge">
<title>n34:e&#45;&gt;c49:w</title>
<path fill="none" stroke="black" stroke-width="3" d="M256.76,-369.25C358.28,-369.25 385.59,-349.43 481.6,-347.96"/>
<polygon fill="black" stroke="black" stroke-width="3" points="478.5,-351.48 488.47,-347.91 478.45,-344.48 478.5,-351.48"/>
</g>
<!-- c50 -->
<g id="node27" class="node">
<title>c50</title>
<polygon fill="none" stroke="black" points="493.01,-170 493.01,-220.5 586.76,-220.5 586.76,-170 493.01,-170"/>
<text text-anchor="middle" x="506.26" y="-203.2" font-family="Times,serif" font-size="14.00">A</text>
<polyline fill="none" stroke="black" points="493.01,-195.25 519.51,-195.25"/>
<text text-anchor="middle" x="506.26" y="-177.95" font-family="Times,serif" font-size="14.00">B</text>
<polyline fill="none" stroke="black" points="519.51,-170 519.51,-220.5"/>
<text text-anchor="middle" x="540.64" y="-199.2" font-family="Times,serif" font-size="14.00">$4</text>
<text text-anchor="middle" x="540.64" y="-181.95" font-family="Times,serif" font-size="14.00">$eq</text>
<polyline fill="none" stroke="black" points="561.76,-170 561.76,-220.5"/>
<text text-anchor="middle" x="574.26" y="-190.7" font-family="Times,serif" font-size="14.00">Y</text>
</g>
<!-- n34&#45;&gt;c50 -->
<g id="edge23" class="edge">
<title>n34:e&#45;&gt;c50:w</title>
<path fill="none" stroke="black" stroke-width="3" d="M256.76,-369.25C346.57,-369.25 389.59,-401.57 457.01,-342.25 500.08,-304.36 441.01,-221.12 481.62,-209.29"/>
<polygon fill="black" stroke="black" stroke-width="3" points="479.01,-213.13 488.51,-208.43 478.15,-206.19 479.01,-213.13"/>
</g>
<!-- c51 -->
<g id="node29" class="node">
<title>c51</title>
<polygon fill="none" stroke="black" points="493.01,-100 493.01,-150.5 586.76,-150.5 586.76,-100 493.01,-100"/>
<text text-anchor="middle" x="506.26" y="-133.2" font-family="Times,serif" font-size="14.00">A</text>
<polyline fill="none" stroke="black" points="493.01,-125.25 519.51,-125.25"/>
<text text-anchor="middle" x="506.26" y="-107.95" font-family="Times,serif" font-size="14.00">B</text>
<polyline fill="none" stroke="black" points="519.51,-100 519.51,-150.5"/>
<text text-anchor="middle" x="540.64" y="-129.2" font-family="Times,serif" font-size="14.00">$3</text>
<text text-anchor="middle" x="540.64" y="-111.95" font-family="Times,serif" font-size="14.00">$eq</text>
<polyline fill="none" stroke="black" points="561.76,-100 561.76,-150.5"/>
<text text-anchor="middle" x="574.26" y="-120.7" font-family="Times,serif" font-size="14.00">Y</text>
</g>
<!-- n34&#45;&gt;c51 -->
<g id="edge24" class="edge">
<title>n34:e&#45;&gt;c51:w</title>
<path fill="none" stroke="black" stroke-width="3" d="M256.76,-369.25C346.57,-369.25 392.24,-404.46 457.01,-342.25 520.55,-281.23 411.43,-150.34 481.85,-138.71"/>
<polygon fill="black" stroke="black" stroke-width="3" points="478.77,-142.44 488.49,-138.21 478.25,-135.46 478.77,-142.44"/>
</g>
<!-- c52 -->
<g id="node31" class="node">
<title>c52</title>
<polygon fill="none" stroke="black" points="493.01,-30 493.01,-80.5 586.76,-80.5 586.76,-30 493.01,-30"/>
<text text-anchor="middle" x="506.26" y="-63.2" font-family="Times,serif" font-size="14.00">A</text>
<polyline fill="none" stroke="black" points="493.01,-55.25 519.51,-55.25"/>
<text text-anchor="middle" x="506.26" y="-37.95" font-family="Times,serif" font-size="14.00">B</text>
<polyline fill="none" stroke="black" points="519.51,-30 519.51,-80.5"/>
<text text-anchor="middle" x="540.64" y="-59.2" font-family="Times,serif" font-size="14.00">$2</text>
<text text-anchor="middle" x="540.64" y="-41.95" font-family="Times,serif" font-size="14.00">$eq</text>
<polyline fill="none" stroke="black" points="561.76,-30 561.76,-80.5"/>
<text text-anchor="middle" x="574.26" y="-50.7" font-family="Times,serif" font-size="14.00">Y</text>
</g>
<!-- n34&#45;&gt;c52 -->
<g id="edge25" class="edge">
<title>n34:e&#45;&gt;c52:w</title>
<path fill="none" stroke="black" stroke-width="3" d="M256.76,-369.25C346.57,-369.25 393.62,-405.87 457.01,-342.25 497.45,-301.67 440.41,-98.56 482.15,-70.98"/>
<polygon fill="black" stroke="black" stroke-width="3" points="479.99,-75.23 488.65,-69.12 478.07,-68.5 479.99,-75.23"/>
</g>
<!-- c38 -->
<g id="node8" class="node">
<title>c38</title>
<polygon fill="none" stroke="black" points="998.51,-492 998.51,-542.5 1141.76,-542.5 1141.76,-492 998.51,-492"/>
<text text-anchor="middle" x="1011.76" y="-525.2" font-family="Times,serif" font-size="14.00">A</text>
<polyline fill="none" stroke="black" points="998.51,-517.25 1025.01,-517.25"/>
<text text-anchor="middle" x="1011.76" y="-499.95" font-family="Times,serif" font-size="14.00">B</text>
<polyline fill="none" stroke="black" points="1025.01,-492 1025.01,-542.5"/>
<text text-anchor="middle" x="1070.89" y="-521.2" font-family="Times,serif" font-size="14.00">$16</text>
<text text-anchor="middle" x="1070.89" y="-503.95" font-family="Times,serif" font-size="14.00">$logic_and</text>
<polyline fill="none" stroke="black" points="1116.76,-492 1116.76,-542.5"/>
<text text-anchor="middle" x="1129.26" y="-512.7" font-family="Times,serif" font-size="14.00">Y</text>
</g>
<!-- p9 -->
<g id="node32" class="node">
<title>p9</title>
<path fill="none" stroke="black" d="M1659.51,-256.5C1659.51,-256.5 1189.76,-256.5 1189.76,-256.5 1183.76,-256.5 1177.76,-250.5 1177.76,-244.5 1177.76,-244.5 1177.76,-226 1177.76,-226 1177.76,-220 1183.76,-214 1189.76,-214 1189.76,-214 1659.51,-214 1659.51,-214 1665.51,-214 1671.51,-220 1671.51,-226 1671.51,-226 1671.51,-244.5 1671.51,-244.5 1671.51,-250.5 1665.51,-256.5 1659.51,-256.5"/>
<text text-anchor="middle" x="1424.64" y="-239.2" font-family="Times,serif" font-size="14.00">PROC $1</text>
<text text-anchor="middle" x="1424.64" y="-221.95" font-family="Times,serif" font-size="14.00">/home/de_generic/my_designs/bachus_project/F/F_isNaN.sv:0.0&#45;0.0</text>
</g>
<!-- c38&#45;&gt;p9 -->
<g id="edge12" class="edge">
<title>c38:e&#45;&gt;p9:w</title>
<path fill="none" stroke="black" d="M1141.76,-517.38C1200.77,-517.38 1125.89,-271.48 1167.12,-238.82"/>
<polygon fill="black" stroke="black" points="1167.96,-242.23 1176.33,-235.73 1165.74,-235.59 1167.96,-242.23"/>
</g>
<!-- c39 -->
<g id="node9" class="node">
<title>c39</title>
<polygon fill="none" stroke="black" points="819.64,-484 819.64,-526.5 959.14,-526.5 959.14,-484 819.64,-484"/>
<text text-anchor="middle" x="832.51" y="-500.7" font-family="Times,serif" font-size="14.00">A</text>
<polyline fill="none" stroke="black" points="845.39,-484 845.39,-526.5"/>
<text text-anchor="middle" x="889.76" y="-509.2" font-family="Times,serif" font-size="14.00">$15</text>
<text text-anchor="middle" x="889.76" y="-491.95" font-family="Times,serif" font-size="14.00">$logic_not</text>
<polyline fill="none" stroke="black" points="934.14,-484 934.14,-526.5"/>
<text text-anchor="middle" x="946.64" y="-500.7" font-family="Times,serif" font-size="14.00">Y</text>
</g>
<!-- c39&#45;&gt;c38 -->
<g id="edge16" class="edge">
<title>c39:e&#45;&gt;c38:w</title>
<path fill="none" stroke="black" d="M960.14,-505.38C972.67,-505.38 978.29,-504.97 987.15,-504.76"/>
<polygon fill="black" stroke="black" points="987.04,-508.26 997,-504.64 986.96,-501.26 987.04,-508.26"/>
</g>
<!-- c40 -->
<g id="node10" class="node">
<title>c40</title>
<polygon fill="none" stroke="black" points="628.39,-484 628.39,-526.5 774.64,-526.5 774.64,-484 628.39,-484"/>
<text text-anchor="middle" x="641.26" y="-500.7" font-family="Times,serif" font-size="14.00">A</text>
<polyline fill="none" stroke="black" points="654.14,-484 654.14,-526.5"/>
<text text-anchor="middle" x="701.89" y="-509.2" font-family="Times,serif" font-size="14.00">$14</text>
<text text-anchor="middle" x="701.89" y="-491.95" font-family="Times,serif" font-size="14.00">$reduce_or</text>
<polyline fill="none" stroke="black" points="749.64,-484 749.64,-526.5"/>
<text text-anchor="middle" x="762.14" y="-500.7" font-family="Times,serif" font-size="14.00">Y</text>
</g>
<!-- c40&#45;&gt;c39 -->
<g id="edge30" class="edge">
<title>c40:e&#45;&gt;c39:w</title>
<path fill="none" stroke="black" d="M775.64,-505.38C790.27,-505.38 796.5,-505.38 807.19,-505.38"/>
<polygon fill="black" stroke="black" points="807.13,-508.88 817.13,-505.38 807.13,-501.88 807.13,-508.88"/>
</g>
<!-- x0&#45;&gt;c40 -->
<g id="edge1" class="edge">
<title>x0:e&#45;&gt;c40:w</title>
<path fill="none" stroke="black" stroke-width="3" d="M599.69,-506.87C604.96,-506.55 609.2,-506.08 614.48,-505.75"/>
<polygon fill="none" stroke="black" stroke-width="3" points="601.46,-506.82 595.58,-510.99 589.47,-507.17 595.35,-503 601.46,-506.82"/>
<polygon fill="none" stroke="black" stroke-width="3" points="612.69,-505.81 618.57,-501.63 624.69,-505.45 618.81,-509.63 612.69,-505.81"/>
</g>
<!-- c41 -->
<g id="node12" class="node">
<title>c41</title>
<polygon fill="none" stroke="black" points="819.64,-546 819.64,-588.5 959.14,-588.5 959.14,-546 819.64,-546"/>
<text text-anchor="middle" x="832.51" y="-562.7" font-family="Times,serif" font-size="14.00">A</text>
<polyline fill="none" stroke="black" points="845.39,-546 845.39,-588.5"/>
<text text-anchor="middle" x="889.76" y="-571.2" font-family="Times,serif" font-size="14.00">$13</text>
<text text-anchor="middle" x="889.76" y="-553.95" font-family="Times,serif" font-size="14.00">$logic_not</text>
<polyline fill="none" stroke="black" points="934.14,-546 934.14,-588.5"/>
<text text-anchor="middle" x="946.64" y="-562.7" font-family="Times,serif" font-size="14.00">Y</text>
</g>
<!-- c41&#45;&gt;c38 -->
<g id="edge31" class="edge">
<title>c41:e&#45;&gt;c38:w</title>
<path fill="none" stroke="black" d="M960.14,-567.38C979.33,-567.38 977.04,-543.09 987.84,-533.61"/>
<polygon fill="black" stroke="black" points="988.8,-536.98 997.09,-530.37 986.49,-530.37 988.8,-536.98"/>
</g>
<!-- c42 -->
<g id="node13" class="node">
<title>c42</title>
<polygon fill="none" stroke="black" points="622.76,-546 622.76,-588.5 780.26,-588.5 780.26,-546 622.76,-546"/>
<text text-anchor="middle" x="635.64" y="-562.7" font-family="Times,serif" font-size="14.00">A</text>
<polyline fill="none" stroke="black" points="648.51,-546 648.51,-588.5"/>
<text text-anchor="middle" x="701.89" y="-571.2" font-family="Times,serif" font-size="14.00">$12</text>
<text text-anchor="middle" x="701.89" y="-553.95" font-family="Times,serif" font-size="14.00">$reduce_and</text>
<polyline fill="none" stroke="black" points="755.26,-546 755.26,-588.5"/>
<text text-anchor="middle" x="767.76" y="-562.7" font-family="Times,serif" font-size="14.00">Y</text>
</g>
<!-- c42&#45;&gt;c41 -->
<g id="edge32" class="edge">
<title>c42:e&#45;&gt;c41:w</title>
<path fill="none" stroke="black" d="M780.26,-567.38C792.79,-567.38 798.42,-567.38 807.28,-567.38"/>
<polygon fill="black" stroke="black" points="807.13,-570.88 817.13,-567.38 807.13,-563.88 807.13,-570.88"/>
</g>
<!-- x1&#45;&gt;c42 -->
<g id="edge2" class="edge">
<title>x1:e&#45;&gt;c42:w</title>
<path fill="none" stroke="black" stroke-width="3" d="M599.49,-565.79C603.09,-566.1 606.21,-566.5 609.79,-566.82"/>
<polygon fill="none" stroke="black" stroke-width="3" points="601.46,-565.87 595.29,-569.61 589.47,-565.36 595.63,-561.62 601.46,-565.87"/>
<polygon fill="none" stroke="black" stroke-width="3" points="608.07,-566.74 614.24,-563 620.06,-567.26 613.9,-571 608.07,-566.74"/>
</g>
<!-- c43 -->
<g id="node15" class="node">
<title>c43</title>
<polygon fill="none" stroke="black" points="998.51,-368 998.51,-418.5 1141.76,-418.5 1141.76,-368 998.51,-368"/>
<text text-anchor="middle" x="1011.76" y="-401.2" font-family="Times,serif" font-size="14.00">A</text>
<polyline fill="none" stroke="black" points="998.51,-393.25 1025.01,-393.25"/>
<text text-anchor="middle" x="1011.76" y="-375.95" font-family="Times,serif" font-size="14.00">B</text>
<polyline fill="none" stroke="black" points="1025.01,-368 1025.01,-418.5"/>
<text text-anchor="middle" x="1070.89" y="-397.2" font-family="Times,serif" font-size="14.00">$11</text>
<text text-anchor="middle" x="1070.89" y="-379.95" font-family="Times,serif" font-size="14.00">$logic_and</text>
<polyline fill="none" stroke="black" points="1116.76,-368 1116.76,-418.5"/>
<text text-anchor="middle" x="1129.26" y="-388.7" font-family="Times,serif" font-size="14.00">Y</text>
</g>
<!-- c43&#45;&gt;p9 -->
<g id="edge33" class="edge">
<title>c43:e&#45;&gt;p9:w</title>
<path fill="none" stroke="black" d="M1141.76,-393.38C1209.48,-393.38 1118.12,-253.82 1166.57,-236.92"/>
<polygon fill="black" stroke="black" points="1166.89,-240.41 1176.27,-235.47 1165.86,-233.49 1166.89,-240.41"/>
</g>
<!-- c44 -->
<g id="node16" class="node">
<title>c44</title>
<polygon fill="none" stroke="black" points="816.26,-360 816.26,-402.5 962.51,-402.5 962.51,-360 816.26,-360"/>
<text text-anchor="middle" x="829.14" y="-376.7" font-family="Times,serif" font-size="14.00">A</text>
<polyline fill="none" stroke="black" points="842.01,-360 842.01,-402.5"/>
<text text-anchor="middle" x="889.76" y="-385.2" font-family="Times,serif" font-size="14.00">$10</text>
<text text-anchor="middle" x="889.76" y="-367.95" font-family="Times,serif" font-size="14.00">$reduce_or</text>
<polyline fill="none" stroke="black" points="937.51,-360 937.51,-402.5"/>
<text text-anchor="middle" x="950.01" y="-376.7" font-family="Times,serif" font-size="14.00">Y</text>
</g>
<!-- c44&#45;&gt;c43 -->
<g id="edge34" class="edge">
<title>c44:e&#45;&gt;c43:w</title>
<path fill="none" stroke="black" d="M962.51,-381.38C973.89,-381.38 979.2,-381 987.07,-380.78"/>
<polygon fill="black" stroke="black" points="987.05,-384.28 997,-380.65 986.96,-377.28 987.05,-384.28"/>
</g>
<!-- x2&#45;&gt;c44 -->
<g id="edge3" class="edge">
<title>x2:e&#45;&gt;c44:w</title>
<path fill="none" stroke="black" stroke-width="3" d="M599.81,-397.16C687.15,-395.94 715.88,-382.68 803.24,-381.46"/>
<polygon fill="none" stroke="black" stroke-width="3" points="601.47,-397.15 595.5,-401.19 589.47,-397.23 595.44,-393.19 601.47,-397.15"/>
<polygon fill="none" stroke="black" stroke-width="3" points="801.56,-381.48 807.53,-377.43 813.56,-381.39 807.59,-385.43 801.56,-381.48"/>
</g>
<!-- c45 -->
<g id="node18" class="node">
<title>c45</title>
<polygon fill="none" stroke="black" points="819.64,-422 819.64,-464.5 959.14,-464.5 959.14,-422 819.64,-422"/>
<text text-anchor="middle" x="832.51" y="-438.7" font-family="Times,serif" font-size="14.00">A</text>
<polyline fill="none" stroke="black" points="845.39,-422 845.39,-464.5"/>
<text text-anchor="middle" x="889.76" y="-447.2" font-family="Times,serif" font-size="14.00">$9</text>
<text text-anchor="middle" x="889.76" y="-429.95" font-family="Times,serif" font-size="14.00">$logic_not</text>
<polyline fill="none" stroke="black" points="934.14,-422 934.14,-464.5"/>
<text text-anchor="middle" x="946.64" y="-438.7" font-family="Times,serif" font-size="14.00">Y</text>
</g>
<!-- c45&#45;&gt;c43 -->
<g id="edge5" class="edge">
<title>c45:e&#45;&gt;c43:w</title>
<path fill="none" stroke="black" d="M960.14,-443.38C979.33,-443.38 977.04,-419.09 987.84,-409.61"/>
<polygon fill="black" stroke="black" points="988.8,-412.98 997.09,-406.37 986.49,-406.37 988.8,-412.98"/>
</g>
<!-- c46 -->
<g id="node19" class="node">
<title>c46</title>
<polygon fill="none" stroke="black" points="628.39,-422 628.39,-464.5 774.64,-464.5 774.64,-422 628.39,-422"/>
<text text-anchor="middle" x="641.26" y="-438.7" font-family="Times,serif" font-size="14.00">A</text>
<polyline fill="none" stroke="black" points="654.14,-422 654.14,-464.5"/>
<text text-anchor="middle" x="701.89" y="-447.2" font-family="Times,serif" font-size="14.00">$8</text>
<text text-anchor="middle" x="701.89" y="-429.95" font-family="Times,serif" font-size="14.00">$reduce_or</text>
<polyline fill="none" stroke="black" points="749.64,-422 749.64,-464.5"/>
<text text-anchor="middle" x="762.14" y="-438.7" font-family="Times,serif" font-size="14.00">Y</text>
</g>
<!-- c46&#45;&gt;c45 -->
<g id="edge6" class="edge">
<title>c46:e&#45;&gt;c45:w</title>
<path fill="none" stroke="black" d="M775.64,-443.38C790.27,-443.38 796.5,-443.38 807.19,-443.38"/>
<polygon fill="black" stroke="black" points="807.13,-446.88 817.13,-443.38 807.13,-439.88 807.13,-446.88"/>
</g>
<!-- x3&#45;&gt;c46 -->
<g id="edge4" class="edge">
<title>x3:e&#45;&gt;c46:w</title>
<path fill="none" stroke="black" stroke-width="3" d="M599.5,-450.54C604.97,-448.97 609.2,-446.65 614.67,-445.08"/>
<polygon fill="none" stroke="black" stroke-width="3" points="601.34,-450.29 595.92,-455.06 589.44,-451.89 594.86,-447.13 601.34,-450.29"/>
<polygon fill="none" stroke="black" stroke-width="3" points="612.82,-445.33 618.23,-440.57 624.71,-443.73 619.29,-448.5 612.82,-445.33"/>
</g>
<!-- c47 -->
<g id="node21" class="node">
<title>c47</title>
<polygon fill="none" stroke="black" points="635.51,-252 635.51,-302.5 767.51,-302.5 767.51,-252 635.51,-252"/>
<text text-anchor="middle" x="648.76" y="-285.2" font-family="Times,serif" font-size="14.00">A</text>
<polyline fill="none" stroke="black" points="635.51,-277.25 662.01,-277.25"/>
<text text-anchor="middle" x="648.76" y="-259.95" font-family="Times,serif" font-size="14.00">B</text>
<polyline fill="none" stroke="black" points="662.01,-252 662.01,-302.5"/>
<text text-anchor="middle" x="702.26" y="-281.2" font-family="Times,serif" font-size="14.00">$7</text>
<text text-anchor="middle" x="702.26" y="-263.95" font-family="Times,serif" font-size="14.00">$logic_or</text>
<polyline fill="none" stroke="black" points="742.51,-252 742.51,-302.5"/>
<text text-anchor="middle" x="755.01" y="-272.7" font-family="Times,serif" font-size="14.00">Y</text>
</g>
<!-- c47&#45;&gt;p9 -->
<g id="edge7" class="edge">
<title>c47:e&#45;&gt;p9:w</title>
<path fill="none" stroke="black" d="M768.51,-277.38C947.52,-277.38 993.02,-237 1166.43,-235.3"/>
<polygon fill="black" stroke="black" points="1166.27,-238.81 1176.25,-235.26 1166.23,-231.81 1166.27,-238.81"/>
</g>
<!-- v4 -->
<g id="node22" class="node">
<title>v4</title>
<ellipse fill="none" stroke="black" cx="228.51" cy="-253.25" rx="27" ry="18"/>
<text text-anchor="middle" x="228.51" y="-248.57" font-family="Times,serif" font-size="14.00">0</text>
</g>
<!-- v4&#45;&gt;c48 -->
<g id="edge35" class="edge">
<title>v4:e&#45;&gt;c48:w</title>
<path fill="none" stroke="black" stroke-width="3" d="M256.76,-253.25C357.87,-253.25 385.96,-252.67 481.64,-252.63"/>
<polygon fill="black" stroke="black" stroke-width="3" points="478.47,-256.13 488.47,-252.63 478.47,-249.13 478.47,-256.13"/>
</g>
<!-- c48&#45;&gt;c47 -->
<g id="edge8" class="edge">
<title>c48:e&#45;&gt;c47:w</title>
<path fill="none" stroke="black" d="M586.76,-265.38C603.68,-265.38 610.48,-264.9 623.28,-264.71"/>
<polygon fill="black" stroke="black" points="623.03,-268.21 633,-264.64 622.98,-261.21 623.03,-268.21"/>
</g>
<!-- v5 -->
<g id="node24" class="node">
<title>v5</title>
<ellipse fill="none" stroke="black" cx="228.51" cy="-315.25" rx="228.51" ry="18"/>
<text text-anchor="middle" x="228.51" y="-310.57" font-family="Times,serif" font-size="14.00">32&#39;10000000000000000000000000000000</text>
</g>
<!-- v5&#45;&gt;c49 -->
<g id="edge36" class="edge">
<title>v5:e&#45;&gt;c49:w</title>
<path fill="none" stroke="black" stroke-width="3" d="M457.01,-315.25C468.75,-315.25 473.78,-319.06 481.74,-321.2"/>
<polygon fill="black" stroke="black" stroke-width="3" points="478.15,-324.28 488.51,-322.06 479.03,-317.33 478.15,-324.28"/>
</g>
<!-- c49&#45;&gt;c47 -->
<g id="edge9" class="edge">
<title>c49:e&#45;&gt;c47:w</title>
<path fill="none" stroke="black" d="M586.76,-335.38C611.5,-335.38 607.62,-302.98 623.41,-292.86"/>
<polygon fill="black" stroke="black" points="624.3,-296.24 633.05,-290.27 622.49,-289.48 624.3,-296.24"/>
</g>
<!-- v6 -->
<g id="node26" class="node">
<title>v6</title>
<ellipse fill="none" stroke="black" cx="228.51" cy="-183.25" rx="228.51" ry="18"/>
<text text-anchor="middle" x="228.51" y="-178.57" font-family="Times,serif" font-size="14.00">32&#39;11111111100000000000000000000000</text>
</g>
<!-- v6&#45;&gt;c50 -->
<g id="edge37" class="edge">
<title>v6:e&#45;&gt;c50:w</title>
<path fill="none" stroke="black" stroke-width="3" d="M457.01,-183.25C468.39,-183.25 473.7,-182.93 481.57,-182.75"/>
<polygon fill="black" stroke="black" stroke-width="3" points="478.51,-186.29 488.47,-182.68 478.44,-179.29 478.51,-186.29"/>
</g>
<!-- c50&#45;&gt;p9 -->
<g id="edge10" class="edge">
<title>c50:e&#45;&gt;p9:w</title>
<path fill="none" stroke="black" d="M586.76,-195.38C833.97,-195.38 895.24,-213.79 1141.76,-232.25 1153.15,-233.1 1158.43,-234.26 1166.3,-234.86"/>
<polygon fill="black" stroke="black" points="1166.14,-238.35 1176.25,-235.2 1166.38,-231.36 1166.14,-238.35"/>
</g>
<!-- v7 -->
<g id="node28" class="node">
<title>v7</title>
<ellipse fill="none" stroke="black" cx="228.51" cy="-113.25" rx="74.36" ry="18"/>
<text text-anchor="middle" x="228.51" y="-108.58" font-family="Times,serif" font-size="14.00">2139095040</text>
</g>
<!-- v7&#45;&gt;c51 -->
<g id="edge38" class="edge">
<title>v7:e&#45;&gt;c51:w</title>
<path fill="none" stroke="black" stroke-width="3" d="M304.18,-113.25C384.17,-113.25 406.98,-112.68 481.61,-112.63"/>
<polygon fill="black" stroke="black" stroke-width="3" points="478.47,-116.13 488.47,-112.63 478.47,-109.13 478.47,-116.13"/>
</g>
<!-- c51&#45;&gt;p9 -->
<g id="edge11" class="edge">
<title>c51:e&#45;&gt;p9:w</title>
<path fill="none" stroke="black" d="M586.76,-125.38C836.72,-125.38 904.81,-136.68 1141.76,-216.25 1154.49,-220.52 1158.19,-228.92 1166.65,-232.96"/>
<polygon fill="black" stroke="black" points="1165.78,-236.36 1176.28,-234.95 1167.19,-229.5 1165.78,-236.36"/>
</g>
<!-- v8 -->
<g id="node30" class="node">
<title>v8</title>
<ellipse fill="none" stroke="black" cx="228.51" cy="-43.25" rx="74.36" ry="18"/>
<text text-anchor="middle" x="228.51" y="-38.58" font-family="Times,serif" font-size="14.00">2143289344</text>
</g>
<!-- v8&#45;&gt;c52 -->
<g id="edge39" class="edge">
<title>v8:e&#45;&gt;c52:w</title>
<path fill="none" stroke="black" stroke-width="3" d="M304.18,-43.25C384.17,-43.25 406.98,-42.68 481.61,-42.63"/>
<polygon fill="black" stroke="black" stroke-width="3" points="478.47,-46.13 488.47,-42.63 478.47,-39.13 478.47,-46.13"/>
</g>
<!-- c52&#45;&gt;p9 -->
<g id="edge13" class="edge">
<title>c52:e&#45;&gt;p9:w</title>
<path fill="none" stroke="black" d="M586.76,-55.38C838.39,-55.38 940.5,-16.23 1141.76,-167.25 1165.27,-184.89 1149.71,-222.43 1166.57,-232.64"/>
<polygon fill="black" stroke="black" points="1165.76,-236.04 1176.29,-234.91 1167.35,-229.23 1165.76,-236.04"/>
</g>
<!-- p9&#45;&gt;n28 -->
<g id="edge14" class="edge">
<title>p9:e&#45;&gt;n28:w</title>
<path fill="none" stroke="black" d="M1671.51,-235.25C1731.65,-235.25 1670.18,-352.42 1713.68,-368.44"/>
<polygon fill="black" stroke="black" points="1713.13,-371.9 1723.55,-370.01 1714.23,-364.99 1713.13,-371.9"/>
</g>
<!-- p9&#45;&gt;n29 -->
<g id="edge15" class="edge">
<title>p9:e&#45;&gt;n29:w</title>
<path fill="none" stroke="black" d="M1671.51,-235.25C1700.36,-235.25 1688.18,-267.84 1707.51,-289.25 1717.09,-299.86 1720.12,-309.89 1729.23,-314.13"/>
<polygon fill="black" stroke="black" points="1728.28,-317.51 1738.76,-315.96 1729.6,-310.64 1728.28,-317.51"/>
</g>
<!-- p9&#45;&gt;n30 -->
<g id="edge17" class="edge">
<title>p9:e&#45;&gt;n30:w</title>
<path fill="none" stroke="black" d="M1671.51,-235.25C1686.83,-235.25 1688.07,-251.08 1696.79,-258.5"/>
<polygon fill="black" stroke="black" points="1695.49,-261.75 1706.09,-261.75 1697.8,-255.14 1695.49,-261.75"/>
</g>
<!-- p9&#45;&gt;n31 -->
<g id="edge18" class="edge">
<title>p9:e&#45;&gt;n31:w</title>
<path fill="none" stroke="black" d="M1671.51,-235.25C1695.15,-235.25 1699.51,-216.03 1717.12,-210.02"/>
<polygon fill="black" stroke="black" points="1717.64,-213.48 1726.98,-208.48 1716.56,-206.57 1717.64,-213.48"/>
</g>
<!-- p9&#45;&gt;n32 -->
<g id="edge19" class="edge">
<title>p9:e&#45;&gt;n32:w</title>
<path fill="none" stroke="black" d="M1671.51,-235.25C1700.36,-235.25 1686.83,-201.36 1707.51,-181.25 1720.55,-168.57 1725.87,-158.82 1739.22,-155.49"/>
<polygon fill="black" stroke="black" points="1739.53,-158.97 1749.09,-154.41 1738.77,-152.02 1739.53,-158.97"/>
</g>
<!-- p9&#45;&gt;n33 -->
<g id="edge20" class="edge">
<title>p9:e&#45;&gt;n33:w</title>
<path fill="none" stroke="black" d="M1671.51,-235.25C1722.11,-235.25 1678.71,-168.85 1707.51,-127.25 1715.82,-115.26 1719.76,-105.8 1729.71,-102.03"/>
<polygon fill="black" stroke="black" points="1730.01,-105.52 1739.33,-100.49 1728.9,-98.61 1730.01,-105.52"/>
</g>
</g>
</svg>
