<?xml version="1.0" encoding="UTF-8" standalone="no"?>
<!DOCTYPE svg PUBLIC "-//W3C//DTD SVG 1.1//EN"
 "http://www.w3.org/Graphics/SVG/1.1/DTD/svg11.dtd">
<!-- Generated by graphviz version 12.2.1 (0)
 -->
<!-- Title: F_isNaN Pages: 1 -->
<svg width="1630pt" height="437pt"
 viewBox="0.00 0.00 1629.98 436.75" xmlns="http://www.w3.org/2000/svg" xmlns:xlink="http://www.w3.org/1999/xlink">
<g id="graph0" class="graph" transform="scale(1 1) rotate(0) translate(4 432.75)">
<title>F_isNaN</title>
<polygon fill="white" stroke="none" points="-4,4 -4,-432.75 1625.98,-432.75 1625.98,4 -4,4"/>
<text text-anchor="middle" x="810.99" y="-7.95" font-family="Times,serif" font-size="14.00">F_isNaN</text>
<!-- n17 -->
<g id="node1" class="node">
<title>n17</title>
<polygon fill="none" stroke="black" points="929.35,-240 844.28,-222 929.35,-204 1014.41,-222 929.35,-240"/>
<text text-anchor="middle" x="929.35" y="-217.32" font-family="Times,serif" font-size="14.00">sigZeroes</text>
</g>
<!-- c34 -->
<g id="node15" class="node">
<title>c34</title>
<polygon fill="none" stroke="black" points="1056.75,-163.75 1056.75,-206.25 1155.75,-206.25 1155.75,-163.75 1056.75,-163.75"/>
<text text-anchor="middle" x="1069.63" y="-180.45" font-family="Times,serif" font-size="14.00">A</text>
<polyline fill="none" stroke="black" points="1082.5,-163.75 1082.5,-206.25"/>
<text text-anchor="middle" x="1106.63" y="-188.95" font-family="Times,serif" font-size="14.00">$12</text>
<text text-anchor="middle" x="1106.63" y="-171.7" font-family="Times,serif" font-size="14.00">$not</text>
<polyline fill="none" stroke="black" points="1130.75,-163.75 1130.75,-206.25"/>
<text text-anchor="middle" x="1143.25" y="-180.45" font-family="Times,serif" font-size="14.00">Y</text>
</g>
<!-- n17&#45;&gt;c34 -->
<g id="edge15" class="edge">
<title>n17:e&#45;&gt;c34:w</title>
<path fill="none" stroke="black" d="M1017.53,-222C1036.53,-222 1034.42,-198.12 1045.17,-188.8"/>
<polygon fill="black" stroke="black" points="1046.02,-192.2 1054.32,-185.62 1043.73,-185.59 1046.02,-192.2"/>
</g>
<!-- c35 -->
<g id="node16" class="node">
<title>c35</title>
<polygon fill="none" stroke="black" points="1054.88,-295.75 1054.88,-346.25 1157.63,-346.25 1157.63,-295.75 1054.88,-295.75"/>
<text text-anchor="middle" x="1068.13" y="-328.95" font-family="Times,serif" font-size="14.00">A</text>
<polyline fill="none" stroke="black" points="1054.88,-321 1081.38,-321"/>
<text text-anchor="middle" x="1068.13" y="-303.7" font-family="Times,serif" font-size="14.00">B</text>
<polyline fill="none" stroke="black" points="1081.38,-295.75 1081.38,-346.25"/>
<text text-anchor="middle" x="1107" y="-324.95" font-family="Times,serif" font-size="14.00">$11</text>
<text text-anchor="middle" x="1107" y="-307.7" font-family="Times,serif" font-size="14.00">$and</text>
<polyline fill="none" stroke="black" points="1132.63,-295.75 1132.63,-346.25"/>
<text text-anchor="middle" x="1145.13" y="-316.45" font-family="Times,serif" font-size="14.00">Y</text>
</g>
<!-- n17&#45;&gt;c35 -->
<g id="edge16" class="edge">
<title>n17:e&#45;&gt;c35:w</title>
<path fill="none" stroke="black" d="M1017.53,-222C1054.62,-222 1022.41,-289.91 1043.8,-305.3"/>
<polygon fill="black" stroke="black" points="1042.85,-308.67 1053.42,-307.97 1044.72,-301.92 1042.85,-308.67"/>
</g>
<!-- c36 -->
<g id="node17" class="node">
<title>c36</title>
<polygon fill="none" stroke="black" points="1054.88,-225.75 1054.88,-276.25 1157.63,-276.25 1157.63,-225.75 1054.88,-225.75"/>
<text text-anchor="middle" x="1068.13" y="-258.95" font-family="Times,serif" font-size="14.00">A</text>
<polyline fill="none" stroke="black" points="1054.88,-251 1081.38,-251"/>
<text text-anchor="middle" x="1068.13" y="-233.7" font-family="Times,serif" font-size="14.00">B</text>
<polyline fill="none" stroke="black" points="1081.38,-225.75 1081.38,-276.25"/>
<text text-anchor="middle" x="1107" y="-254.95" font-family="Times,serif" font-size="14.00">$10</text>
<text text-anchor="middle" x="1107" y="-237.7" font-family="Times,serif" font-size="14.00">$and</text>
<polyline fill="none" stroke="black" points="1132.63,-225.75 1132.63,-276.25"/>
<text text-anchor="middle" x="1145.13" y="-246.45" font-family="Times,serif" font-size="14.00">Y</text>
</g>
<!-- n17&#45;&gt;c36 -->
<g id="edge17" class="edge">
<title>n17:e&#45;&gt;c36:w</title>
<path fill="none" stroke="black" d="M1017.53,-222C1031.13,-222 1035.14,-231.21 1043.95,-235.82"/>
<polygon fill="black" stroke="black" points="1042.87,-239.16 1053.41,-238.03 1044.47,-232.34 1042.87,-239.16"/>
</g>
<!-- n18 -->
<g id="node2" class="node">
<title>n18</title>
<polygon fill="none" stroke="black" points="929.35,-115 839.82,-97 929.35,-79 1018.88,-97 929.35,-115"/>
<text text-anchor="middle" x="929.35" y="-92.33" font-family="Times,serif" font-size="14.00">expZeroes</text>
</g>
<!-- c31 -->
<g id="node12" class="node">
<title>c31</title>
<polygon fill="none" stroke="black" points="1055.25,-25.75 1055.25,-68.25 1157.25,-68.25 1157.25,-25.75 1055.25,-25.75"/>
<text text-anchor="middle" x="1068.13" y="-42.45" font-family="Times,serif" font-size="14.00">A</text>
<polyline fill="none" stroke="black" points="1081,-25.75 1081,-68.25"/>
<text text-anchor="middle" x="1106.63" y="-50.95" font-family="Times,serif" font-size="14.00">$15</text>
<text text-anchor="middle" x="1106.63" y="-33.7" font-family="Times,serif" font-size="14.00">$neg</text>
<polyline fill="none" stroke="black" points="1132.25,-25.75 1132.25,-68.25"/>
<text text-anchor="middle" x="1144.75" y="-42.45" font-family="Times,serif" font-size="14.00">Y</text>
</g>
<!-- n18&#45;&gt;c31 -->
<g id="edge19" class="edge">
<title>n18:e&#45;&gt;c31:w</title>
<path fill="none" stroke="black" d="M1018.88,-97C1041.52,-97 1032.6,-62.8 1044.39,-51.04"/>
<polygon fill="black" stroke="black" points="1045.32,-54.43 1053.46,-47.65 1042.87,-47.87 1045.32,-54.43"/>
</g>
<!-- c33 -->
<g id="node14" class="node">
<title>c33</title>
<polygon fill="none" stroke="black" points="1193.63,-169.75 1193.63,-220.25 1296.38,-220.25 1296.38,-169.75 1193.63,-169.75"/>
<text text-anchor="middle" x="1206.88" y="-202.95" font-family="Times,serif" font-size="14.00">A</text>
<polyline fill="none" stroke="black" points="1193.63,-195 1220.13,-195"/>
<text text-anchor="middle" x="1206.88" y="-177.7" font-family="Times,serif" font-size="14.00">B</text>
<polyline fill="none" stroke="black" points="1220.13,-169.75 1220.13,-220.25"/>
<text text-anchor="middle" x="1245.75" y="-198.95" font-family="Times,serif" font-size="14.00">$13</text>
<text text-anchor="middle" x="1245.75" y="-181.7" font-family="Times,serif" font-size="14.00">$and</text>
<polyline fill="none" stroke="black" points="1271.38,-169.75 1271.38,-220.25"/>
<text text-anchor="middle" x="1283.88" y="-190.45" font-family="Times,serif" font-size="14.00">Y</text>
</g>
<!-- n18&#45;&gt;c33 -->
<g id="edge20" class="edge">
<title>n18:e&#45;&gt;c33:w</title>
<path fill="none" stroke="black" d="M1018.88,-97C1085.55,-97 1105.99,-111.84 1157.63,-154 1176.22,-169.18 1168.83,-196.45 1182.67,-204.99"/>
<polygon fill="black" stroke="black" points="1181.62,-208.34 1192.16,-207.27 1183.25,-201.53 1181.62,-208.34"/>
</g>
<!-- n19 -->
<g id="node3" class="node">
<title>n19</title>
<polygon fill="none" stroke="black" points="726.93,-301 650.05,-283 726.93,-265 803.82,-283 726.93,-301"/>
<text text-anchor="middle" x="726.93" y="-278.32" font-family="Times,serif" font-size="14.00">expOnes</text>
</g>
<!-- c32 -->
<g id="node13" class="node">
<title>c32</title>
<polygon fill="none" stroke="black" points="879.85,-140.75 879.85,-183.25 978.85,-183.25 978.85,-140.75 879.85,-140.75"/>
<text text-anchor="middle" x="892.72" y="-157.45" font-family="Times,serif" font-size="14.00">A</text>
<polyline fill="none" stroke="black" points="905.6,-140.75 905.6,-183.25"/>
<text text-anchor="middle" x="929.72" y="-165.95" font-family="Times,serif" font-size="14.00">$14</text>
<text text-anchor="middle" x="929.72" y="-148.7" font-family="Times,serif" font-size="14.00">$not</text>
<polyline fill="none" stroke="black" points="953.85,-140.75 953.85,-183.25"/>
<text text-anchor="middle" x="966.35" y="-157.45" font-family="Times,serif" font-size="14.00">Y</text>
</g>
<!-- n19&#45;&gt;c32 -->
<g id="edge22" class="edge">
<title>n19:e&#45;&gt;c32:w</title>
<path fill="none" stroke="black" d="M803.82,-283C846.07,-283 814.93,-229.16 839.82,-195 850.56,-180.25 854.6,-167.95 867.59,-163.71"/>
<polygon fill="black" stroke="black" points="867.93,-167.19 877.35,-162.34 866.96,-160.26 867.93,-167.19"/>
</g>
<!-- n19&#45;&gt;c35 -->
<g id="edge23" class="edge">
<title>n19:e&#45;&gt;c35:w</title>
<path fill="none" stroke="black" d="M803.82,-283C857.28,-283 981.64,-327.68 1043.69,-333.09"/>
<polygon fill="black" stroke="black" points="1043.21,-336.57 1053.37,-333.55 1043.55,-329.58 1043.21,-336.57"/>
</g>
<!-- n19&#45;&gt;c36 -->
<g id="edge24" class="edge">
<title>n19:e&#45;&gt;c36:w</title>
<path fill="none" stroke="black" d="M803.82,-283C911.8,-283 940.94,-264.96 1043.38,-263.7"/>
<polygon fill="black" stroke="black" points="1043.39,-267.2 1053.37,-263.63 1043.34,-260.2 1043.39,-267.2"/>
</g>
<!-- c40 -->
<g id="node22" class="node">
<title>c40</title>
<polygon fill="none" stroke="black" points="877.97,-377.75 877.97,-428.25 980.72,-428.25 980.72,-377.75 877.97,-377.75"/>
<text text-anchor="middle" x="891.22" y="-410.95" font-family="Times,serif" font-size="14.00">A</text>
<polyline fill="none" stroke="black" points="877.97,-403 904.47,-403"/>
<text text-anchor="middle" x="891.22" y="-385.7" font-family="Times,serif" font-size="14.00">B</text>
<polyline fill="none" stroke="black" points="904.47,-377.75 904.47,-428.25"/>
<text text-anchor="middle" x="930.1" y="-406.95" font-family="Times,serif" font-size="14.00">$6</text>
<text text-anchor="middle" x="930.1" y="-389.7" font-family="Times,serif" font-size="14.00">$and</text>
<polyline fill="none" stroke="black" points="955.72,-377.75 955.72,-428.25"/>
<text text-anchor="middle" x="968.22" y="-398.45" font-family="Times,serif" font-size="14.00">Y</text>
</g>
<!-- n19&#45;&gt;c40 -->
<g id="edge25" class="edge">
<title>n19:e&#45;&gt;c40:w</title>
<path fill="none" stroke="black" d="M803.82,-283C866.93,-283 816.84,-399.56 865.8,-414.14"/>
<polygon fill="black" stroke="black" points="865.1,-417.57 875.47,-415.43 866.02,-410.63 865.1,-417.57"/>
</g>
<!-- n20 -->
<g id="node4" class="node">
<title>n20</title>
<polygon fill="none" stroke="black" points="1603.19,-83.54 1603.19,-98.46 1567.05,-109 1515.94,-109 1479.8,-98.46 1479.8,-83.54 1515.94,-73 1567.05,-73 1603.19,-83.54"/>
<text text-anchor="middle" x="1541.49" y="-86.33" font-family="Times,serif" font-size="14.00">isNormal</text>
</g>
<!-- n21 -->
<g id="node5" class="node">
<title>n21</title>
<polygon fill="none" stroke="black" points="1425.01,-313.54 1425.01,-328.46 1397.88,-339 1359.51,-339 1332.38,-328.46 1332.38,-313.54 1359.51,-303 1397.88,-303 1425.01,-313.54"/>
<text text-anchor="middle" x="1378.69" y="-316.32" font-family="Times,serif" font-size="14.00">isZero</text>
</g>
<!-- n22 -->
<g id="node6" class="node">
<title>n22</title>
<polygon fill="none" stroke="black" points="1621.98,-187.54 1621.98,-202.46 1574.83,-213 1508.16,-213 1461.01,-202.46 1461.01,-187.54 1508.16,-177 1574.83,-177 1621.98,-187.54"/>
<text text-anchor="middle" x="1541.49" y="-190.32" font-family="Times,serif" font-size="14.00">isSubnormal</text>
</g>
<!-- n23 -->
<g id="node7" class="node">
<title>n23</title>
<polygon fill="none" stroke="black" points="116.55,-329.54 116.55,-344.46 82.41,-355 34.14,-355 0,-344.46 0,-329.54 34.14,-319 82.41,-319 116.55,-329.54"/>
<text text-anchor="middle" x="58.27" y="-332.32" font-family="Times,serif" font-size="14.00">isNegInf</text>
</g>
<!-- n24 -->
<g id="node8" class="node">
<title>n24</title>
<polygon fill="none" stroke="black" points="1414.76,-243.54 1414.76,-258.46 1393.63,-269 1363.76,-269 1342.63,-258.46 1342.63,-243.54 1363.76,-233 1393.63,-233 1414.76,-243.54"/>
<text text-anchor="middle" x="1378.69" y="-246.32" font-family="Times,serif" font-size="14.00">isInf</text>
</g>
<!-- n25 -->
<g id="node9" class="node">
<title>n25</title>
<polygon fill="none" stroke="black" points="1424.44,-383.54 1424.44,-398.46 1397.64,-409 1359.75,-409 1332.95,-398.46 1332.95,-383.54 1359.75,-373 1397.64,-373 1424.44,-383.54"/>
<text text-anchor="middle" x="1378.69" y="-386.32" font-family="Times,serif" font-size="14.00">isNaN</text>
</g>
<!-- n26 -->
<g id="node10" class="node">
<title>n26</title>
<polygon fill="none" stroke="black" points="85.27,-275.54 85.27,-290.46 69.46,-301 47.09,-301 31.27,-290.46 31.27,-275.54 47.09,-265 69.46,-265 85.27,-275.54"/>
<text text-anchor="middle" x="58.27" y="-278.32" font-family="Times,serif" font-size="14.00">a</text>
</g>
<!-- x0 -->
<g id="node21" class="node">
<title>x0</title>
<path fill="none" stroke="black" d="M164.55,-324C164.55,-324 233.05,-324 233.05,-324 239.05,-324 245.05,-330 245.05,-336 245.05,-336 245.05,-348 245.05,-348 245.05,-354 239.05,-360 233.05,-360 233.05,-360 164.55,-360 164.55,-360 158.55,-360 152.55,-354 152.55,-348 152.55,-348 152.55,-336 152.55,-336 152.55,-330 158.55,-324 164.55,-324"/>
<text text-anchor="middle" x="198.8" y="-337.7" font-family="Times,serif" font-size="14.00">21:0 &#45; 21:0</text>
</g>
<!-- n26&#45;&gt;x0 -->
<g id="edge32" class="edge">
<title>n26:e&#45;&gt;x0:w</title>
<path fill="none" stroke="black" stroke-width="3" d="M86.53,-283C121.67,-283 115.28,-330.1 141.34,-340.4"/>
<polygon fill="black" stroke="black" stroke-width="3" points="137.62,-343.3 148.08,-341.59 138.84,-336.4 137.62,-343.3"/>
</g>
<!-- x1 -->
<g id="node23" class="node">
<title>x1</title>
<path fill="none" stroke="black" d="M692.68,-376C692.68,-376 761.18,-376 761.18,-376 767.18,-376 773.18,-382 773.18,-388 773.18,-388 773.18,-400 773.18,-400 773.18,-406 767.18,-412 761.18,-412 761.18,-412 692.68,-412 692.68,-412 686.68,-412 680.68,-406 680.68,-400 680.68,-400 680.68,-388 680.68,-388 680.68,-382 686.68,-376 692.68,-376"/>
<text text-anchor="middle" x="726.93" y="-389.7" font-family="Times,serif" font-size="14.00">22:22 &#45; 0:0</text>
</g>
<!-- n26&#45;&gt;x1 -->
<g id="edge33" class="edge">
<title>n26:e&#45;&gt;x1:w</title>
<path fill="none" stroke="black" d="M86.53,-283C113.72,-283 147.47,-366.96 152.55,-370 165.04,-377.46 225.29,-394.1 668.47,-394.37"/>
<polygon fill="black" stroke="black" points="668.17,-397.87 678.17,-394.37 668.17,-390.87 668.17,-397.87"/>
</g>
<!-- x2 -->
<g id="node26" class="node">
<title>x2</title>
<path fill="none" stroke="black" d="M164.55,-207C164.55,-207 233.05,-207 233.05,-207 239.05,-207 245.05,-213 245.05,-219 245.05,-219 245.05,-231 245.05,-231 245.05,-237 239.05,-243 233.05,-243 233.05,-243 164.55,-243 164.55,-243 158.55,-243 152.55,-237 152.55,-231 152.55,-231 152.55,-219 152.55,-219 152.55,-213 158.55,-207 164.55,-207"/>
<text text-anchor="middle" x="198.8" y="-220.7" font-family="Times,serif" font-size="14.00">22:0 &#45; 22:0</text>
</g>
<!-- n26&#45;&gt;x2 -->
<g id="edge34" class="edge">
<title>n26:e&#45;&gt;x2:w</title>
<path fill="none" stroke="black" stroke-width="3" d="M86.53,-283C121.22,-283 115.59,-237.29 141.46,-227.29"/>
<polygon fill="black" stroke="black" stroke-width="3" points="138.82,-231.3 148.07,-226.15 137.62,-224.4 138.82,-231.3"/>
</g>
<!-- x3 -->
<g id="node29" class="node">
<title>x3</title>
<path fill="none" stroke="black" d="M164.55,-145C164.55,-145 233.05,-145 233.05,-145 239.05,-145 245.05,-151 245.05,-157 245.05,-157 245.05,-169 245.05,-169 245.05,-175 239.05,-181 233.05,-181 233.05,-181 164.55,-181 164.55,-181 158.55,-181 152.55,-175 152.55,-169 152.55,-169 152.55,-157 152.55,-157 152.55,-151 158.55,-145 164.55,-145"/>
<text text-anchor="middle" x="198.8" y="-158.7" font-family="Times,serif" font-size="14.00">30:23 &#45; 7:0</text>
</g>
<!-- n26&#45;&gt;x3 -->
<g id="edge35" class="edge">
<title>n26:e&#45;&gt;x3:w</title>
<path fill="none" stroke="black" stroke-width="3" d="M86.53,-283C142.98,-283 99.04,-179.61 141.38,-165.07"/>
<polygon fill="black" stroke="black" stroke-width="3" points="138.7,-169.01 148.06,-164.05 137.65,-162.09 138.7,-169.01"/>
</g>
<!-- x4 -->
<g id="node31" class="node">
<title>x4</title>
<path fill="none" stroke="black" d="M164.55,-265C164.55,-265 233.05,-265 233.05,-265 239.05,-265 245.05,-271 245.05,-277 245.05,-277 245.05,-289 245.05,-289 245.05,-295 239.05,-301 233.05,-301 233.05,-301 164.55,-301 164.55,-301 158.55,-301 152.55,-295 152.55,-289 152.55,-289 152.55,-277 152.55,-277 152.55,-271 158.55,-265 164.55,-265"/>
<text text-anchor="middle" x="198.8" y="-278.7" font-family="Times,serif" font-size="14.00">30:23 &#45; 7:0</text>
</g>
<!-- n26&#45;&gt;x4 -->
<g id="edge36" class="edge">
<title>n26:e&#45;&gt;x4:w</title>
<path fill="none" stroke="black" stroke-width="3" d="M86.53,-283C111.63,-283 120.63,-283.27 141.07,-283.35"/>
<polygon fill="black" stroke="black" stroke-width="3" points="138,-286.85 148.01,-283.37 138.01,-279.85 138,-286.85"/>
</g>
<!-- c30 -->
<g id="node11" class="node">
<title>c30</title>
<polygon fill="none" stroke="black" points="1193.63,-65.75 1193.63,-116.25 1296.38,-116.25 1296.38,-65.75 1193.63,-65.75"/>
<text text-anchor="middle" x="1206.88" y="-98.95" font-family="Times,serif" font-size="14.00">A</text>
<polyline fill="none" stroke="black" points="1193.63,-91 1220.13,-91"/>
<text text-anchor="middle" x="1206.88" y="-73.7" font-family="Times,serif" font-size="14.00">B</text>
<polyline fill="none" stroke="black" points="1220.13,-65.75 1220.13,-116.25"/>
<text text-anchor="middle" x="1245.75" y="-94.95" font-family="Times,serif" font-size="14.00">$16</text>
<text text-anchor="middle" x="1245.75" y="-77.7" font-family="Times,serif" font-size="14.00">$and</text>
<polyline fill="none" stroke="black" points="1271.38,-65.75 1271.38,-116.25"/>
<text text-anchor="middle" x="1283.88" y="-86.45" font-family="Times,serif" font-size="14.00">Y</text>
</g>
<!-- x12 -->
<g id="node39" class="node">
<title>x12</title>
<ellipse fill="black" stroke="black" cx="1378.69" cy="-91" rx="1.8" ry="1.8"/>
</g>
<!-- c30&#45;&gt;x12 -->
<g id="edge6" class="edge">
<title>c30:e&#45;&gt;x12:w</title>
<path fill="none" stroke="black" d="M1296.38,-91.12C1327.39,-91.12 1337.87,-91.03 1364.07,-91"/>
<polygon fill="black" stroke="black" points="1363.9,-94.5 1373.9,-91 1363.9,-87.5 1363.9,-94.5"/>
</g>
<!-- c31&#45;&gt;c30 -->
<g id="edge26" class="edge">
<title>c31:e&#45;&gt;c30:w</title>
<path fill="none" stroke="black" d="M1157.63,-47.12C1174.18,-47.12 1173.91,-66.2 1183.1,-74.54"/>
<polygon fill="black" stroke="black" points="1181.61,-77.72 1192.21,-77.86 1184.01,-71.15 1181.61,-77.72"/>
</g>
<!-- c32&#45;&gt;c30 -->
<g id="edge37" class="edge">
<title>c32:e&#45;&gt;c30:w</title>
<path fill="none" stroke="black" d="M979.85,-162.12C1074.41,-162.12 1093.65,-108.22 1182.18,-103.9"/>
<polygon fill="black" stroke="black" points="1182.2,-107.4 1192.12,-103.66 1182.04,-100.4 1182.2,-107.4"/>
</g>
<!-- x11 -->
<g id="node38" class="node">
<title>x11</title>
<ellipse fill="black" stroke="black" cx="1378.69" cy="-195" rx="1.8" ry="1.8"/>
</g>
<!-- c33&#45;&gt;x11 -->
<g id="edge38" class="edge">
<title>c33:e&#45;&gt;x11:w</title>
<path fill="none" stroke="black" d="M1296.38,-195.12C1327.39,-195.12 1337.87,-195.03 1364.07,-195"/>
<polygon fill="black" stroke="black" points="1363.9,-198.5 1373.9,-195 1363.9,-191.5 1363.9,-198.5"/>
</g>
<!-- c34&#45;&gt;c33 -->
<g id="edge39" class="edge">
<title>c34:e&#45;&gt;c33:w</title>
<path fill="none" stroke="black" d="M1156.75,-185.12C1168.57,-185.12 1173.96,-183.7 1182.16,-182.91"/>
<polygon fill="black" stroke="black" points="1182.29,-186.4 1192.12,-182.44 1181.97,-179.41 1182.29,-186.4"/>
</g>
<!-- x10 -->
<g id="node37" class="node">
<title>x10</title>
<ellipse fill="black" stroke="black" cx="1245" cy="-321" rx="1.8" ry="1.8"/>
</g>
<!-- c35&#45;&gt;x10 -->
<g id="edge40" class="edge">
<title>c35:e&#45;&gt;x10:w</title>
<path fill="none" stroke="black" d="M1157.63,-321.12C1190.92,-321.12 1201.97,-321.03 1230.39,-321"/>
<polygon fill="black" stroke="black" points="1230.21,-324.5 1240.21,-321 1230.21,-317.5 1230.21,-324.5"/>
</g>
<!-- x9 -->
<g id="node36" class="node">
<title>x9</title>
<ellipse fill="black" stroke="black" cx="1245" cy="-251" rx="1.8" ry="1.8"/>
</g>
<!-- c36&#45;&gt;x9 -->
<g id="edge41" class="edge">
<title>c36:e&#45;&gt;x9:w</title>
<path fill="none" stroke="black" d="M1157.63,-251.12C1190.92,-251.12 1201.97,-251.03 1230.39,-251"/>
<polygon fill="black" stroke="black" points="1230.21,-254.5 1240.21,-251 1230.21,-247.5 1230.21,-254.5"/>
</g>
<!-- c37 -->
<g id="node18" class="node">
<title>c37</title>
<polygon fill="none" stroke="black" points="1054.88,-365.75 1054.88,-416.25 1157.63,-416.25 1157.63,-365.75 1054.88,-365.75"/>
<text text-anchor="middle" x="1068.13" y="-398.95" font-family="Times,serif" font-size="14.00">A</text>
<polyline fill="none" stroke="black" points="1054.88,-391 1081.38,-391"/>
<text text-anchor="middle" x="1068.13" y="-373.7" font-family="Times,serif" font-size="14.00">B</text>
<polyline fill="none" stroke="black" points="1081.38,-365.75 1081.38,-416.25"/>
<text text-anchor="middle" x="1107" y="-394.95" font-family="Times,serif" font-size="14.00">$9</text>
<text text-anchor="middle" x="1107" y="-377.7" font-family="Times,serif" font-size="14.00">$and</text>
<polyline fill="none" stroke="black" points="1132.63,-365.75 1132.63,-416.25"/>
<text text-anchor="middle" x="1145.13" y="-386.45" font-family="Times,serif" font-size="14.00">Y</text>
</g>
<!-- x8 -->
<g id="node35" class="node">
<title>x8</title>
<ellipse fill="black" stroke="black" cx="1245" cy="-391" rx="1.8" ry="1.8"/>
</g>
<!-- c37&#45;&gt;x8 -->
<g id="edge42" class="edge">
<title>c37:e&#45;&gt;x8:w</title>
<path fill="none" stroke="black" d="M1157.63,-391.12C1190.92,-391.12 1201.97,-391.03 1230.39,-391"/>
<polygon fill="black" stroke="black" points="1230.21,-394.5 1240.21,-391 1230.21,-387.5 1230.21,-394.5"/>
</g>
<!-- c38 -->
<g id="node19" class="node">
<title>c38</title>
<polygon fill="none" stroke="black" points="474.55,-323.75 474.55,-366.25 614.05,-366.25 614.05,-323.75 474.55,-323.75"/>
<text text-anchor="middle" x="487.42" y="-340.45" font-family="Times,serif" font-size="14.00">A</text>
<polyline fill="none" stroke="black" points="500.3,-323.75 500.3,-366.25"/>
<text text-anchor="middle" x="544.67" y="-348.95" font-family="Times,serif" font-size="14.00">$8</text>
<text text-anchor="middle" x="544.67" y="-331.7" font-family="Times,serif" font-size="14.00">$logic_not</text>
<polyline fill="none" stroke="black" points="589.05,-323.75 589.05,-366.25"/>
<text text-anchor="middle" x="601.55" y="-340.45" font-family="Times,serif" font-size="14.00">Y</text>
</g>
<!-- c38&#45;&gt;c37 -->
<g id="edge43" class="edge">
<title>c38:e&#45;&gt;c37:w</title>
<path fill="none" stroke="black" d="M614.05,-345.12C794.26,-345.12 841.22,-337.77 1018.88,-368 1030.68,-370.01 1035.51,-374.49 1043.48,-376.85"/>
<polygon fill="black" stroke="black" points="1043,-380.32 1053.38,-378.17 1043.93,-373.38 1043,-380.32"/>
</g>
<!-- c39 -->
<g id="node20" class="node">
<title>c39</title>
<polygon fill="none" stroke="black" points="286.67,-323.75 286.67,-366.25 432.92,-366.25 432.92,-323.75 286.67,-323.75"/>
<text text-anchor="middle" x="299.55" y="-340.45" font-family="Times,serif" font-size="14.00">A</text>
<polyline fill="none" stroke="black" points="312.42,-323.75 312.42,-366.25"/>
<text text-anchor="middle" x="360.17" y="-348.95" font-family="Times,serif" font-size="14.00">$7</text>
<text text-anchor="middle" x="360.17" y="-331.7" font-family="Times,serif" font-size="14.00">$reduce_or</text>
<polyline fill="none" stroke="black" points="407.92,-323.75 407.92,-366.25"/>
<text text-anchor="middle" x="420.42" y="-340.45" font-family="Times,serif" font-size="14.00">Y</text>
</g>
<!-- c39&#45;&gt;c38 -->
<g id="edge7" class="edge">
<title>c39:e&#45;&gt;c38:w</title>
<path fill="none" stroke="black" d="M433.92,-345.12C447.47,-345.12 453.39,-345.12 463.12,-345.12"/>
<polygon fill="black" stroke="black" points="463.04,-348.63 473.04,-345.13 463.04,-341.63 463.04,-348.63"/>
</g>
<!-- x0&#45;&gt;c39 -->
<g id="edge1" class="edge">
<title>x0:e&#45;&gt;c39:w</title>
<path fill="none" stroke="black" stroke-width="3" d="M257.98,-342.63C263.25,-343.17 267.48,-343.95 272.75,-344.49"/>
<polygon fill="none" stroke="black" stroke-width="3" points="259.74,-342.72 253.55,-346.42 247.75,-342.13 253.94,-338.43 259.74,-342.72"/>
<polygon fill="none" stroke="black" stroke-width="3" points="270.99,-344.41 277.18,-340.7 282.97,-344.99 276.78,-348.7 270.99,-344.41"/>
</g>
<!-- c40&#45;&gt;c37 -->
<g id="edge8" class="edge">
<title>c40:e&#45;&gt;c37:w</title>
<path fill="none" stroke="black" d="M981.72,-403.12C1010.05,-403.12 1019.86,-403.5 1043.42,-403.6"/>
<polygon fill="black" stroke="black" points="1043.36,-407.1 1053.37,-403.62 1043.37,-400.1 1043.36,-407.1"/>
</g>
<!-- x1&#45;&gt;c40 -->
<g id="edge2" class="edge">
<title>x1:e&#45;&gt;c40:w</title>
<path fill="none" stroke="black" d="M787.12,-393.9C818.54,-393.37 832.6,-391.01 864.01,-390.48"/>
<polygon fill="none" stroke="black" points="787.08,-393.9 781.12,-397.94 775.08,-393.99 781.05,-389.94 787.08,-393.9"/>
<polygon fill="none" stroke="black" points="864.07,-390.48 870.04,-386.43 876.07,-390.38 870.1,-394.43 864.07,-390.48"/>
</g>
<!-- c41 -->
<g id="node24" class="node">
<title>c41</title>
<polygon fill="none" stroke="black" points="474.55,-199.75 474.55,-242.25 614.05,-242.25 614.05,-199.75 474.55,-199.75"/>
<text text-anchor="middle" x="487.42" y="-216.45" font-family="Times,serif" font-size="14.00">A</text>
<polyline fill="none" stroke="black" points="500.3,-199.75 500.3,-242.25"/>
<text text-anchor="middle" x="544.67" y="-224.95" font-family="Times,serif" font-size="14.00">$5</text>
<text text-anchor="middle" x="544.67" y="-207.7" font-family="Times,serif" font-size="14.00">$logic_not</text>
<polyline fill="none" stroke="black" points="589.05,-199.75 589.05,-242.25"/>
<text text-anchor="middle" x="601.55" y="-216.45" font-family="Times,serif" font-size="14.00">Y</text>
</g>
<!-- x7 -->
<g id="node34" class="node">
<title>x7</title>
<ellipse fill="black" stroke="black" cx="726.93" cy="-221" rx="1.8" ry="1.8"/>
</g>
<!-- c41&#45;&gt;x7 -->
<g id="edge9" class="edge">
<title>c41:e&#45;&gt;x7:w</title>
<path fill="none" stroke="black" d="M614.05,-221.12C658.77,-221.12 672.7,-221.02 712.36,-221"/>
<polygon fill="black" stroke="black" points="712.14,-224.5 722.14,-221 712.14,-217.5 712.14,-224.5"/>
</g>
<!-- c42 -->
<g id="node25" class="node">
<title>c42</title>
<polygon fill="none" stroke="black" points="286.67,-199.75 286.67,-242.25 432.92,-242.25 432.92,-199.75 286.67,-199.75"/>
<text text-anchor="middle" x="299.55" y="-216.45" font-family="Times,serif" font-size="14.00">A</text>
<polyline fill="none" stroke="black" points="312.42,-199.75 312.42,-242.25"/>
<text text-anchor="middle" x="360.17" y="-224.95" font-family="Times,serif" font-size="14.00">$4</text>
<text text-anchor="middle" x="360.17" y="-207.7" font-family="Times,serif" font-size="14.00">$reduce_or</text>
<polyline fill="none" stroke="black" points="407.92,-199.75 407.92,-242.25"/>
<text text-anchor="middle" x="420.42" y="-216.45" font-family="Times,serif" font-size="14.00">Y</text>
</g>
<!-- c42&#45;&gt;c41 -->
<g id="edge10" class="edge">
<title>c42:e&#45;&gt;c41:w</title>
<path fill="none" stroke="black" d="M433.92,-221.12C447.47,-221.12 453.39,-221.12 463.12,-221.12"/>
<polygon fill="black" stroke="black" points="463.04,-224.63 473.04,-221.13 463.04,-217.63 463.04,-224.63"/>
</g>
<!-- x2&#45;&gt;c42 -->
<g id="edge3" class="edge">
<title>x2:e&#45;&gt;c42:w</title>
<path fill="none" stroke="black" stroke-width="3" d="M257.99,-224.22C263.25,-223.54 267.48,-222.58 272.74,-221.91"/>
<polygon fill="none" stroke="black" stroke-width="3" points="259.73,-224.11 253.98,-228.47 247.75,-224.84 253.5,-220.48 259.73,-224.11"/>
<polygon fill="none" stroke="black" stroke-width="3" points="271,-222.01 276.74,-217.66 282.97,-221.29 277.23,-225.64 271,-222.01"/>
</g>
<!-- c43 -->
<g id="node27" class="node">
<title>c43</title>
<polygon fill="none" stroke="black" points="474.55,-123.75 474.55,-166.25 614.05,-166.25 614.05,-123.75 474.55,-123.75"/>
<text text-anchor="middle" x="487.42" y="-140.45" font-family="Times,serif" font-size="14.00">A</text>
<polyline fill="none" stroke="black" points="500.3,-123.75 500.3,-166.25"/>
<text text-anchor="middle" x="544.67" y="-148.95" font-family="Times,serif" font-size="14.00">$3</text>
<text text-anchor="middle" x="544.67" y="-131.7" font-family="Times,serif" font-size="14.00">$logic_not</text>
<polyline fill="none" stroke="black" points="589.05,-123.75 589.05,-166.25"/>
<text text-anchor="middle" x="601.55" y="-140.45" font-family="Times,serif" font-size="14.00">Y</text>
</g>
<!-- x6 -->
<g id="node33" class="node">
<title>x6</title>
<ellipse fill="black" stroke="black" cx="726.93" cy="-116" rx="1.8" ry="1.8"/>
</g>
<!-- c43&#45;&gt;x6 -->
<g id="edge11" class="edge">
<title>c43:e&#45;&gt;x6:w</title>
<path fill="none" stroke="black" d="M614.05,-145.12C660.42,-145.12 671.57,-120.48 712.3,-116.53"/>
<polygon fill="black" stroke="black" points="712.32,-120.03 722.14,-116.07 711.99,-113.04 712.32,-120.03"/>
</g>
<!-- c44 -->
<g id="node28" class="node">
<title>c44</title>
<polygon fill="none" stroke="black" points="286.67,-137.75 286.67,-180.25 432.92,-180.25 432.92,-137.75 286.67,-137.75"/>
<text text-anchor="middle" x="299.55" y="-154.45" font-family="Times,serif" font-size="14.00">A</text>
<polyline fill="none" stroke="black" points="312.42,-137.75 312.42,-180.25"/>
<text text-anchor="middle" x="360.17" y="-162.95" font-family="Times,serif" font-size="14.00">$2</text>
<text text-anchor="middle" x="360.17" y="-145.7" font-family="Times,serif" font-size="14.00">$reduce_or</text>
<polyline fill="none" stroke="black" points="407.92,-137.75 407.92,-180.25"/>
<text text-anchor="middle" x="420.42" y="-154.45" font-family="Times,serif" font-size="14.00">Y</text>
</g>
<!-- c44&#45;&gt;c43 -->
<g id="edge12" class="edge">
<title>c44:e&#45;&gt;c43:w</title>
<path fill="none" stroke="black" d="M433.92,-159.12C448.55,-159.12 453.4,-150.92 463.44,-147.07"/>
<polygon fill="black" stroke="black" points="463.81,-150.56 473.06,-145.39 462.6,-143.66 463.81,-150.56"/>
</g>
<!-- x3&#45;&gt;c44 -->
<g id="edge4" class="edge">
<title>x3:e&#45;&gt;c44:w</title>
<path fill="none" stroke="black" stroke-width="3" d="M257.99,-162.22C263.25,-161.54 267.48,-160.58 272.74,-159.91"/>
<polygon fill="none" stroke="black" stroke-width="3" points="259.73,-162.11 253.98,-166.47 247.75,-162.84 253.5,-158.48 259.73,-162.11"/>
<polygon fill="none" stroke="black" stroke-width="3" points="271,-160.01 276.74,-155.66 282.97,-159.29 277.23,-163.64 271,-160.01"/>
</g>
<!-- c45 -->
<g id="node30" class="node">
<title>c45</title>
<polygon fill="none" stroke="black" points="281.05,-261.75 281.05,-304.25 438.55,-304.25 438.55,-261.75 281.05,-261.75"/>
<text text-anchor="middle" x="293.92" y="-278.45" font-family="Times,serif" font-size="14.00">A</text>
<polyline fill="none" stroke="black" points="306.8,-261.75 306.8,-304.25"/>
<text text-anchor="middle" x="360.17" y="-286.95" font-family="Times,serif" font-size="14.00">$1</text>
<text text-anchor="middle" x="360.17" y="-269.7" font-family="Times,serif" font-size="14.00">$reduce_and</text>
<polyline fill="none" stroke="black" points="413.55,-261.75 413.55,-304.25"/>
<text text-anchor="middle" x="426.05" y="-278.45" font-family="Times,serif" font-size="14.00">Y</text>
</g>
<!-- x5 -->
<g id="node32" class="node">
<title>x5</title>
<ellipse fill="black" stroke="black" cx="544.3" cy="-283" rx="1.8" ry="1.8"/>
</g>
<!-- c45&#45;&gt;x5 -->
<g id="edge13" class="edge">
<title>c45:e&#45;&gt;x5:w</title>
<path fill="none" stroke="black" d="M438.55,-283.12C480,-283.12 493.16,-283.02 529.52,-283"/>
<polygon fill="black" stroke="black" points="529.51,-286.5 539.51,-283 529.51,-279.5 529.51,-286.5"/>
</g>
<!-- x4&#45;&gt;c45 -->
<g id="edge5" class="edge">
<title>x4:e&#45;&gt;c45:w</title>
<path fill="none" stroke="black" stroke-width="3" d="M257.77,-283.03C261.37,-283.05 264.5,-283.07 268.08,-283.09"/>
<polygon fill="none" stroke="black" stroke-width="3" points="259.75,-283.04 253.74,-287.02 247.75,-283.01 253.76,-279.02 259.75,-283.04"/>
<polygon fill="none" stroke="black" stroke-width="3" points="266.34,-283.09 272.35,-279.1 278.34,-283.12 272.33,-287.1 266.34,-283.09"/>
</g>
<!-- x5&#45;&gt;n19 -->
<g id="edge21" class="edge">
<title>x5:e&#45;&gt;n19:w</title>
<path fill="none" stroke="black" d="M547.58,-283C589.03,-283 602.18,-283 638.55,-283"/>
<polygon fill="black" stroke="black" points="638.54,-286.5 648.54,-283 638.54,-279.5 638.54,-286.5"/>
</g>
<!-- x6&#45;&gt;n18 -->
<g id="edge18" class="edge">
<title>x6:e&#45;&gt;n18:w</title>
<path fill="none" stroke="black" d="M730.21,-116C775.59,-116 788.36,-99.99 828.39,-97.36"/>
<polygon fill="black" stroke="black" points="828.42,-100.86 838.3,-97.05 828.2,-93.87 828.42,-100.86"/>
</g>
<!-- x7&#45;&gt;n17 -->
<g id="edge14" class="edge">
<title>x7:e&#45;&gt;n17:w</title>
<path fill="none" stroke="black" d="M730.21,-221C775.48,-221 789.58,-221.84 829.73,-221.98"/>
<polygon fill="black" stroke="black" points="829.64,-225.48 839.65,-222 829.65,-218.48 829.64,-225.48"/>
</g>
<!-- x8&#45;&gt;n25 -->
<g id="edge31" class="edge">
<title>x8:e&#45;&gt;n25:w</title>
<path fill="none" stroke="black" d="M1248.28,-391C1281.57,-391 1292.62,-391 1321.05,-391"/>
<polygon fill="black" stroke="black" points="1320.87,-394.5 1330.87,-391 1320.87,-387.5 1320.87,-394.5"/>
</g>
<!-- x9&#45;&gt;n24 -->
<g id="edge30" class="edge">
<title>x9:e&#45;&gt;n24:w</title>
<path fill="none" stroke="black" d="M1248.28,-251C1285.58,-251 1297.64,-251 1330.01,-251"/>
<polygon fill="black" stroke="black" points="1329.78,-254.5 1339.78,-251 1329.78,-247.5 1329.78,-254.5"/>
</g>
<!-- x10&#45;&gt;n21 -->
<g id="edge28" class="edge">
<title>x10:e&#45;&gt;n21:w</title>
<path fill="none" stroke="black" d="M1248.28,-321C1281.57,-321 1292.62,-321 1321.05,-321"/>
<polygon fill="black" stroke="black" points="1320.87,-324.5 1330.87,-321 1320.87,-317.5 1320.87,-324.5"/>
</g>
<!-- x11&#45;&gt;n22 -->
<g id="edge29" class="edge">
<title>x11:e&#45;&gt;n22:w</title>
<path fill="none" stroke="black" d="M1381.97,-195C1412.98,-195 1423.46,-195 1449.66,-195"/>
<polygon fill="black" stroke="black" points="1449.5,-198.5 1459.5,-195 1449.5,-191.5 1449.5,-198.5"/>
</g>
<!-- x12&#45;&gt;n20 -->
<g id="edge27" class="edge">
<title>x12:e&#45;&gt;n20:w</title>
<path fill="none" stroke="black" d="M1381.97,-91C1420.87,-91 1433.33,-91 1467.27,-91"/>
<polygon fill="black" stroke="black" points="1467.03,-94.5 1477.03,-91 1467.03,-87.5 1467.03,-94.5"/>
</g>
</g>
</svg>
